<mxfile host="app.diagrams.net" modified="2020-08-16T13:39:28.580Z" agent="5.0 (Windows NT 10.0; Win64; x64) AppleWebKit/537.36 (KHTML, like Gecko) Chrome/84.0.4147.125 Safari/537.36" etag="8VKJXqc_-_u2icgINIip" version="13.6.2" type="github">
  <diagram id="tj0yTDYSpAn5oZcSPBnl" name="PÃ¡gina-1">
    <mxGraphModel dx="1108" dy="488" grid="1" gridSize="10" guides="1" tooltips="1" connect="1" arrows="1" fold="1" page="1" pageScale="1" pageWidth="827" pageHeight="1169" math="0" shadow="0">
      <root>
        <mxCell id="0" />
        <mxCell id="1" parent="0" />
        <mxCell id="vRZrvqb68CBZhhpicxmv-1" value="" style="endArrow=none;html=1;strokeColor=#009999;" edge="1" parent="1">
          <mxGeometry width="50" height="50" relative="1" as="geometry">
            <mxPoint x="280" y="240" as="sourcePoint" />
            <mxPoint x="520" y="240" as="targetPoint" />
          </mxGeometry>
        </mxCell>
        <mxCell id="vRZrvqb68CBZhhpicxmv-2" value="" style="endArrow=none;html=1;" edge="1" parent="1">
          <mxGeometry width="50" height="50" relative="1" as="geometry">
            <mxPoint x="280" y="280" as="sourcePoint" />
            <mxPoint x="280" y="240" as="targetPoint" />
          </mxGeometry>
        </mxCell>
        <mxCell id="vRZrvqb68CBZhhpicxmv-3" value="" style="endArrow=none;html=1;strokeColor=#FF0000;" edge="1" parent="1">
          <mxGeometry width="50" height="50" relative="1" as="geometry">
            <mxPoint x="240" y="280" as="sourcePoint" />
            <mxPoint x="280" y="280" as="targetPoint" />
          </mxGeometry>
        </mxCell>
        <mxCell id="vRZrvqb68CBZhhpicxmv-4" value="" style="endArrow=none;dashed=1;html=1;dashPattern=1 3;strokeWidth=2;" edge="1" parent="1">
          <mxGeometry width="50" height="50" relative="1" as="geometry">
            <mxPoint x="280" y="320" as="sourcePoint" />
            <mxPoint x="280" y="200" as="targetPoint" />
          </mxGeometry>
        </mxCell>
        <mxCell id="vRZrvqb68CBZhhpicxmv-5" value="1" style="text;html=1;strokeColor=none;fillColor=none;align=center;verticalAlign=middle;whiteSpace=wrap;rounded=0;" vertex="1" parent="1">
          <mxGeometry x="260" y="180" width="40" height="20" as="geometry" />
        </mxCell>
        <mxCell id="vRZrvqb68CBZhhpicxmv-6" value="0" style="text;html=1;strokeColor=none;fillColor=none;align=center;verticalAlign=middle;whiteSpace=wrap;rounded=0;" vertex="1" parent="1">
          <mxGeometry x="220" y="290" width="40" height="20" as="geometry" />
        </mxCell>
        <mxCell id="vRZrvqb68CBZhhpicxmv-7" value="1" style="text;html=1;strokeColor=none;fillColor=none;align=center;verticalAlign=middle;whiteSpace=wrap;rounded=0;" vertex="1" parent="1">
          <mxGeometry x="340" y="180" width="40" height="20" as="geometry" />
        </mxCell>
        <mxCell id="vRZrvqb68CBZhhpicxmv-8" value="1" style="text;html=1;strokeColor=none;fillColor=none;align=center;verticalAlign=middle;whiteSpace=wrap;rounded=0;" vertex="1" parent="1">
          <mxGeometry x="380" y="180" width="40" height="20" as="geometry" />
        </mxCell>
        <mxCell id="vRZrvqb68CBZhhpicxmv-9" value="1" style="text;html=1;strokeColor=none;fillColor=none;align=center;verticalAlign=middle;whiteSpace=wrap;rounded=0;" vertex="1" parent="1">
          <mxGeometry x="420" y="180" width="40" height="20" as="geometry" />
        </mxCell>
        <mxCell id="vRZrvqb68CBZhhpicxmv-10" value="1" style="text;html=1;strokeColor=none;fillColor=none;align=center;verticalAlign=middle;whiteSpace=wrap;rounded=0;" vertex="1" parent="1">
          <mxGeometry x="460" y="180" width="40" height="20" as="geometry" />
        </mxCell>
        <mxCell id="vRZrvqb68CBZhhpicxmv-11" value="1" style="text;html=1;strokeColor=none;fillColor=none;align=center;verticalAlign=middle;whiteSpace=wrap;rounded=0;" vertex="1" parent="1">
          <mxGeometry x="500" y="180" width="40" height="20" as="geometry" />
        </mxCell>
        <mxCell id="vRZrvqb68CBZhhpicxmv-15" value="1" style="text;html=1;strokeColor=none;fillColor=none;align=center;verticalAlign=middle;whiteSpace=wrap;rounded=0;" vertex="1" parent="1">
          <mxGeometry x="300" y="180" width="40" height="20" as="geometry" />
        </mxCell>
        <mxCell id="vRZrvqb68CBZhhpicxmv-44" value="" style="endArrow=none;dashed=1;html=1;dashPattern=1 3;strokeWidth=2;" edge="1" parent="1">
          <mxGeometry width="50" height="50" relative="1" as="geometry">
            <mxPoint x="440" y="480" as="sourcePoint" />
            <mxPoint x="440" y="320" as="targetPoint" />
          </mxGeometry>
        </mxCell>
        <mxCell id="vRZrvqb68CBZhhpicxmv-45" value="" style="endArrow=none;html=1;strokeColor=#00CC00;" edge="1" parent="1">
          <mxGeometry width="50" height="50" relative="1" as="geometry">
            <mxPoint x="360" y="440" as="sourcePoint" />
            <mxPoint x="440" y="440" as="targetPoint" />
          </mxGeometry>
        </mxCell>
        <mxCell id="vRZrvqb68CBZhhpicxmv-46" value="" style="endArrow=none;html=1;strokeColor=#00CC00;" edge="1" parent="1">
          <mxGeometry width="50" height="50" relative="1" as="geometry">
            <mxPoint x="440" y="440" as="sourcePoint" />
            <mxPoint x="440" y="360" as="targetPoint" />
          </mxGeometry>
        </mxCell>
        <mxCell id="vRZrvqb68CBZhhpicxmv-47" value="" style="endArrow=none;html=1;strokeColor=#00CC00;" edge="1" parent="1">
          <mxGeometry width="50" height="50" relative="1" as="geometry">
            <mxPoint x="440" y="360" as="sourcePoint" />
            <mxPoint x="920" y="360" as="targetPoint" />
          </mxGeometry>
        </mxCell>
        <mxCell id="vRZrvqb68CBZhhpicxmv-48" value="1" style="text;html=1;strokeColor=none;fillColor=none;align=center;verticalAlign=middle;whiteSpace=wrap;rounded=0;" vertex="1" parent="1">
          <mxGeometry x="460" y="340" width="40" height="20" as="geometry" />
        </mxCell>
        <mxCell id="vRZrvqb68CBZhhpicxmv-49" value="1" style="text;html=1;strokeColor=none;fillColor=none;align=center;verticalAlign=middle;whiteSpace=wrap;rounded=0;" vertex="1" parent="1">
          <mxGeometry x="540" y="340" width="40" height="20" as="geometry" />
        </mxCell>
        <mxCell id="vRZrvqb68CBZhhpicxmv-50" value="1" style="text;html=1;strokeColor=none;fillColor=none;align=center;verticalAlign=middle;whiteSpace=wrap;rounded=0;" vertex="1" parent="1">
          <mxGeometry x="620" y="340" width="40" height="20" as="geometry" />
        </mxCell>
        <mxCell id="vRZrvqb68CBZhhpicxmv-51" value="1" style="text;html=1;strokeColor=none;fillColor=none;align=center;verticalAlign=middle;whiteSpace=wrap;rounded=0;" vertex="1" parent="1">
          <mxGeometry x="700" y="340" width="40" height="20" as="geometry" />
        </mxCell>
        <mxCell id="vRZrvqb68CBZhhpicxmv-52" value="1" style="text;html=1;strokeColor=none;fillColor=none;align=center;verticalAlign=middle;whiteSpace=wrap;rounded=0;" vertex="1" parent="1">
          <mxGeometry x="780" y="340" width="40" height="20" as="geometry" />
        </mxCell>
        <mxCell id="vRZrvqb68CBZhhpicxmv-53" value="&lt;h1&gt;&lt;font face=&quot;Lucida Console&quot;&gt;1&lt;/font&gt;&lt;/h1&gt;" style="text;html=1;strokeColor=none;fillColor=none;align=center;verticalAlign=middle;whiteSpace=wrap;rounded=0;" vertex="1" parent="1">
          <mxGeometry x="860" y="340" width="40" height="20" as="geometry" />
        </mxCell>
        <mxCell id="vRZrvqb68CBZhhpicxmv-54" value="&lt;h1&gt;&lt;font face=&quot;Lucida Console&quot; style=&quot;font-weight: normal&quot;&gt;0&lt;/font&gt;&lt;/h1&gt;" style="text;html=1;strokeColor=none;fillColor=none;align=center;verticalAlign=middle;whiteSpace=wrap;rounded=0;" vertex="1" parent="1">
          <mxGeometry x="380" y="420" width="40" height="20" as="geometry" />
        </mxCell>
        <mxCell id="vRZrvqb68CBZhhpicxmv-56" value="&lt;h1&gt;&lt;font face=&quot;Lucida Console&quot;&gt;1&lt;/font&gt;&lt;/h1&gt;" style="text;html=1;strokeColor=none;fillColor=none;align=center;verticalAlign=middle;whiteSpace=wrap;rounded=0;" vertex="1" parent="1">
          <mxGeometry x="460" y="340" width="40" height="20" as="geometry" />
        </mxCell>
        <mxCell id="vRZrvqb68CBZhhpicxmv-57" value="&lt;h1&gt;&lt;font face=&quot;Lucida Console&quot;&gt;1&lt;/font&gt;&lt;/h1&gt;" style="text;html=1;strokeColor=none;fillColor=none;align=center;verticalAlign=middle;whiteSpace=wrap;rounded=0;" vertex="1" parent="1">
          <mxGeometry x="540" y="340" width="40" height="20" as="geometry" />
        </mxCell>
        <mxCell id="vRZrvqb68CBZhhpicxmv-58" value="&lt;h1&gt;&lt;font face=&quot;Lucida Console&quot;&gt;1&lt;/font&gt;&lt;/h1&gt;" style="text;html=1;strokeColor=none;fillColor=none;align=center;verticalAlign=middle;whiteSpace=wrap;rounded=0;" vertex="1" parent="1">
          <mxGeometry x="620" y="340" width="40" height="20" as="geometry" />
        </mxCell>
        <mxCell id="vRZrvqb68CBZhhpicxmv-59" value="&lt;h1&gt;&lt;font face=&quot;Lucida Console&quot;&gt;1&lt;/font&gt;&lt;/h1&gt;" style="text;html=1;strokeColor=none;fillColor=none;align=center;verticalAlign=middle;whiteSpace=wrap;rounded=0;" vertex="1" parent="1">
          <mxGeometry x="700" y="340" width="40" height="20" as="geometry" />
        </mxCell>
        <mxCell id="vRZrvqb68CBZhhpicxmv-60" value="&lt;h1&gt;&lt;font face=&quot;Lucida Console&quot;&gt;1&lt;/font&gt;&lt;/h1&gt;" style="text;html=1;strokeColor=none;fillColor=none;align=center;verticalAlign=middle;whiteSpace=wrap;rounded=0;" vertex="1" parent="1">
          <mxGeometry x="780" y="340" width="40" height="20" as="geometry" />
        </mxCell>
      </root>
    </mxGraphModel>
  </diagram>
</mxfile>
